# xmcd
#
# Track frame offsets: 
#        150
#        20821
#        34775
#        62409
#        81712
#        95306
#        126034
#        147956
#        165308
#        179962
#        206985
#
# Disc length: 2978 seconds
#
# Revision: 0
# Processed by: cddbd v1.5.2PL0 Copyright (c) Steve Scherf et al.
# Submitted via: ExactAudioCopy v0.95a4
#
DISCID=a00ba00b
DTITLE=Memphis Train - Rhythm and Blues
DYEAR=2013
DGENRE=Blues
TTITLE0=I Shot The Sheriff
TTITLE1=Have Love - Will Travel
TTITLE2=Every Day I Have The Blues
TTITLE3=Funky Street
TTITLE4=Great Balls Of Fire
TTITLE5=The Sky Is Cryin'
TTITLE6=Mustang Sally
TTITLE7=Hold On I'm Coming
TTITLE8=Sweet Home Chicago
TTITLE9=Get Out Of My Life Woman
TTITLE10=Mamma Don't
EXTD=
EXTT0=
EXTT1=
EXTT2=
EXTT3=
EXTT4=
EXTT5=
EXTT6=
EXTT7=
EXTT8=
EXTT9=
EXTT10=
PLAYORDER=
